<?xml version="1.0" encoding="UTF-8" standalone="no"?>
<!-- Created with Inkscape (http://www.inkscape.org/) -->

<svg
   width="42.447899mm"
   height="45.67347mm"
   viewBox="0 0 42.447899 45.673469"
   version="1.1"
   id="svg1"
   xml:space="preserve"
   inkscape:version="1.3.2 (091e20e, 2023-11-25)"
   sodipodi:docname="logo.svg"
   xmlns:inkscape="http://www.inkscape.org/namespaces/inkscape"
   xmlns:sodipodi="http://sodipodi.sourceforge.net/DTD/sodipodi-0.dtd"
   xmlns:xlink="http://www.w3.org/1999/xlink"
   xmlns="http://www.w3.org/2000/svg"
   xmlns:svg="http://www.w3.org/2000/svg"><sodipodi:namedview
     id="namedview1"
     pagecolor="#505050"
     bordercolor="#eeeeee"
     borderopacity="1"
     inkscape:showpageshadow="0"
     inkscape:pageopacity="0"
     inkscape:pagecheckerboard="0"
     inkscape:deskcolor="#d1d1d1"
     inkscape:document-units="mm"
     inkscape:zoom="1.410586"
     inkscape:cx="-41.117662"
     inkscape:cy="192.11873"
     inkscape:window-width="1920"
     inkscape:window-height="1007"
     inkscape:window-x="0"
     inkscape:window-y="0"
     inkscape:window-maximized="1"
     inkscape:current-layer="layer1"
     showgrid="false" /><defs
     id="defs1"><linearGradient
       id="linearGradient10"
       inkscape:collect="always"><stop
         style="stop-color:#1a1a1a;stop-opacity:1;"
         offset="0"
         id="stop10" /><stop
         style="stop-color:#1a1a1a;stop-opacity:0;"
         offset="1"
         id="stop11" /></linearGradient><linearGradient
       id="linearGradient8"
       inkscape:collect="always"><stop
         style="stop-color:#ff0000;stop-opacity:1;"
         offset="0"
         id="stop8" /><stop
         style="stop-color:#ff0000;stop-opacity:0;"
         offset="1"
         id="stop9" /></linearGradient><linearGradient
       inkscape:collect="always"
       xlink:href="#linearGradient8"
       id="linearGradient16"
       gradientUnits="userSpaceOnUse"
       gradientTransform="matrix(0.24304442,0,0,0.24304442,269.9779,-499.09426)"
       x1="239.68822"
       y1="-168.2054"
       x2="134.59315"
       y2="-279.37241" /><linearGradient
       inkscape:collect="always"
       xlink:href="#linearGradient10"
       id="linearGradient17"
       gradientUnits="userSpaceOnUse"
       gradientTransform="matrix(0.24304442,0,0,0.24304442,269.9779,-499.09426)"
       x1="163.25439"
       y1="-294.95685"
       x2="141.10622"
       y2="-159.53871" /></defs><g
     inkscape:label="Layer 1"
     inkscape:groupmode="layer"
     id="layer1"
     transform="translate(-286.05471,578.23255)"><path
       id="path8-8"
       style="fill:url(#linearGradient16);stroke:none;stroke-width:0.394328;stroke-linecap:square;paint-order:markers fill stroke"
       d="m 310.21935,-576.39224 a 3.3716897,3.3716897 0 0 1 0.43104,1.6454 3.3716897,3.3716897 0 0 1 -0.96392,2.30174 17.243582,17.243582 0 0 1 9.52453,4.68381 l -12.35971,12.65828 -2.78537,-2.78524 -3.04481,3.04494 5.83462,5.82546 15.08626,-15.38523 a 17.243582,17.243582 0 0 1 2.58032,9.02648 17.243582,17.243582 0 0 1 -14.34056,16.96209 3.3716897,3.3716897 0 0 0 -2.27955,-0.88804 3.3716897,3.3716897 0 0 0 -3.3718,3.37167 3.3716897,3.3716897 0 0 0 3.3718,3.3718 3.3716897,3.3716897 0 0 0 3.05951,-1.95755 21.223985,21.223985 0 0 0 17.5409,-20.85997 21.223985,21.223985 0 0 0 -18.28326,-21.01564 z" /><path
       id="path17"
       style="fill:url(#linearGradient17);stroke:none;stroke-width:0.394328;stroke-linecap:square;paint-order:markers fill stroke"
       d="m 306.57937,-578.23255 a 3.3716897,3.3716897 0 0 0 -3.08559,2.02081 21.223985,21.223985 0 0 0 -17.43907,20.83514 21.223985,21.223985 0 0 0 18.3253,21.01674 3.3716897,3.3716897 0 0 1 -0.47308,-1.64636 3.3716897,3.3716897 0 0 1 0.97738,-2.3152 17.243582,17.243582 0 0 1 -14.84916,-17.05518 17.243582,17.243582 0 0 1 14.32849,-16.94378 3.3716897,3.3716897 0 0 0 2.21573,0.8313 3.3716897,3.3716897 0 0 0 3.37166,-3.3718 3.3716897,3.3716897 0 0 0 -3.37166,-3.37167 z m 0.61459,10.461 c -1.85151,-0.0401 -3.66108,0.51545 -5.79854,2.15954 -1.44724,1.11317 -2.86109,2.62759 -3.48224,4.28481 -3.78829,0.63916 -6.5637,3.9169 -6.56935,7.75873 -2e-5,4.35211 3.52815,7.88034 7.88025,7.88039 l 16.00413,0.0938 c 4.3521,2e-5 7.88021,-3.52788 7.88026,-7.87999 -2.4e-4,-2.75735 -1.43089,-5.21688 -3.63096,-6.62872 l -12.67894,12.67936 -7.41522,-7.63762 4.58989,-4.58989 2.81854,3.05438 7.77953,-7.77967 c -1.42418,-1.62189 -3.89457,-2.85512 -5.49805,-3.17452 -0.64019,-0.12753 -1.26213,-0.2072 -1.8793,-0.22059 z" /></g></svg>
