<?xml version="1.0" encoding="UTF-8" standalone="no"?>
<!-- Created with Inkscape (http://www.inkscape.org/) -->

<svg
   width="43.296963mm"
   height="43.215656mm"
   viewBox="0 0 43.296962 43.215656"
   version="1.1"
   id="svg1"
   xml:space="preserve"
   inkscape:version="1.3.2 (091e20e, 2023-11-25)"
   sodipodi:docname="logo.svg"
   xmlns:inkscape="http://www.inkscape.org/namespaces/inkscape"
   xmlns:sodipodi="http://sodipodi.sourceforge.net/DTD/sodipodi-0.dtd"
   xmlns:xlink="http://www.w3.org/1999/xlink"
   xmlns="http://www.w3.org/2000/svg"
   xmlns:svg="http://www.w3.org/2000/svg"><sodipodi:namedview
     id="namedview1"
     pagecolor="#505050"
     bordercolor="#eeeeee"
     borderopacity="1"
     inkscape:showpageshadow="0"
     inkscape:pageopacity="0"
     inkscape:pagecheckerboard="0"
     inkscape:deskcolor="#d1d1d1"
     inkscape:document-units="mm"
     inkscape:zoom="0.83302977"
     inkscape:cx="67.224489"
     inkscape:cy="183.66691"
     inkscape:window-width="1920"
     inkscape:window-height="1007"
     inkscape:window-x="0"
     inkscape:window-y="0"
     inkscape:window-maximized="1"
     inkscape:current-layer="layer1"
     showgrid="false" /><defs
     id="defs1"><linearGradient
       id="linearGradient10"
       inkscape:collect="always"><stop
         style="stop-color:#1a1a1a;stop-opacity:1;"
         offset="0"
         id="stop10" /><stop
         style="stop-color:#1a1a1a;stop-opacity:0;"
         offset="1"
         id="stop11" /></linearGradient><linearGradient
       id="linearGradient8"
       inkscape:collect="always"><stop
         style="stop-color:#ff0000;stop-opacity:1;"
         offset="0"
         id="stop8" /><stop
         style="stop-color:#ff0000;stop-opacity:0;"
         offset="1"
         id="stop9" /></linearGradient><linearGradient
       inkscape:collect="always"
       xlink:href="#linearGradient8"
       id="linearGradient9"
       x1="166.6955"
       y1="-257.75854"
       x2="128.55711"
       y2="-153.38803"
       gradientUnits="userSpaceOnUse"
       gradientTransform="translate(-14.925513,-201.11853)" /><linearGradient
       inkscape:collect="always"
       xlink:href="#linearGradient10"
       id="linearGradient11"
       x1="184.51714"
       y1="-258.41971"
       x2="78.142548"
       y2="-177.81203"
       gradientUnits="userSpaceOnUse"
       gradientTransform="translate(-14.925513,-201.11853)" /></defs><g
     inkscape:label="Layer 1"
     inkscape:groupmode="layer"
     id="layer1"
     transform="translate(-107.8228,453.91105)"><g
       id="g11"
       transform="matrix(0.26373448,0,0,0.26373448,92.988425,-320.62239)"><path
         style="fill:url(#linearGradient9);stroke:none;stroke-width:1.62246;stroke-linecap:square;paint-order:markers fill stroke"
         d="m 190.57926,-486.60705 -7.14375,7.28535 -0.0326,-0.0326 -46.61369,47.78881 -11.46028,-11.45976 -12.52792,12.52843 24.0068,23.96908 56.7955,-57.92463 c 8.90421,11.87589 13.74653,26.30425 13.8095,41.14736 -0.10537,35.54035 -27.16049,65.20163 -62.54141,68.56584 v -19.39158 -13.0793 h -13.0793 -37.009113 l 7.551483,13.0793 h 29.45763 v 19.39158 13.05037 0.15968 l 13.0793,-0.15968 c 6.42735,-0.51366 12.63301,-1.75852 18.53789,-3.64887 4.84065,-1.54968 9.4793,-3.53324 13.87202,-5.90352 25.75035,-13.89454 43.05668,-41.07923 43.13484,-72.06382 -0.002,-24.49551 -10.94428,-47.71047 -29.83694,-63.30208 z"
         id="path8" /><path
         style="fill:url(#linearGradient11);stroke:none;stroke-width:1.62246;stroke-linecap:square;paint-order:markers fill stroke"
         d="m 138.3318,-505.38936 c -45.333723,-1.4e-4 -82.084536,36.75065 -82.084396,82.08439 0.0442,12.21714 2.834655,24.25863 8.125085,35.26245 l 8.032068,13.91181 h 14.82649 l -7.602642,-13.16819 0.001,-5.1e-4 c -6.709472,-10.81662 -10.303765,-23.27589 -10.378695,-36.00556 -1.11e-4,-35.24754 26.406013,-64.30252 60.51103,-68.52398 v 9.14053 c -13.44482,2.81846 -24.7953,12.29973 -29.74805,25.51368 -15.586924,2.62979 -27.006127,16.11644 -27.029357,31.92364 -9e-5,17.90671 14.51611,32.42315 32.422827,32.42334 l 65.84869,0.38602 c 17.9067,9e-5 32.42315,-14.51559 32.42334,-32.42231 -9.6e-4,-11.34511 -5.8875,-21.46422 -14.93965,-27.27327 l -52.16736,52.1684 -30.50977,-31.42444 18.88516,-18.88516 11.5967,12.5672 32.0089,-32.00942 c -6.4534,-7.34927 -15.42799,-12.22084 -25.32972,-13.50615 v -21.94285 l -0.0667,0.007 0.0434,-0.0434 c -1.61935,-0.1007 -3.24075,-0.18241 -4.86844,-0.18345 z"
         id="path2-61" /></g></g></svg>
